<?xml version="1.0" encoding="UTF-8" standalone="no"?>
<svg
   xmlns:dc="http://purl.org/dc/elements/1.1/"
   xmlns:cc="http://creativecommons.org/ns#"
   xmlns:rdf="http://www.w3.org/1999/02/22-rdf-syntax-ns#"
   xmlns:svg="http://www.w3.org/2000/svg"
   xmlns="http://www.w3.org/2000/svg"
   xmlns:sodipodi="http://sodipodi.sourceforge.net/DTD/sodipodi-0.dtd"
   xmlns:inkscape="http://www.inkscape.org/namespaces/inkscape"
   id="bold"
   enable-background="new 0 0 24 24"
   height="240"
   viewBox="0 0 240 240"
   width="240"
   version="1.1"
   sodipodi:docname="blue-light-off.svg"
   inkscape:version="1.0 (4035a4fb49, 2020-05-01)">
  <metadata
     id="metadata29">
    <rdf:RDF>
      <cc:Work
         rdf:about="">
        <dc:format>image/svg+xml</dc:format>
        <dc:type
           rdf:resource="http://purl.org/dc/dcmitype/StillImage" />
        <dc:title />
      </cc:Work>
    </rdf:RDF>
  </metadata>
  <defs
     id="defs27" />
  <sodipodi:namedview
     inkscape:document-rotation="0"
     pagecolor="#ffffff"
     bordercolor="#666666"
     borderopacity="1"
     objecttolerance="10"
     gridtolerance="10"
     guidetolerance="10"
     inkscape:pageopacity="0"
     inkscape:pageshadow="2"
     inkscape:window-width="1366"
     inkscape:window-height="684"
     id="namedview25"
     showgrid="false"
     inkscape:zoom="1.177598"
     inkscape:cx="140.91522"
     inkscape:cy="195.63048"
     inkscape:window-x="0"
     inkscape:window-y="28"
     inkscape:window-maximized="0"
     inkscape:current-layer="g883"
     inkscape:pagecheckerboard="true" />
  <g
     id="g883"
     transform="translate(20,20)"
     style="fill:#ffffff;fill-opacity:1">
    <g
       id="g843">
      <path
         d="m 125,175 v 10.41667 c 0,8 -6.58333,14.58333 -14.58333,14.58333 H 89.583333 C 82.583333,200 75,194.66667 75,183 v -8 z"
         id="path16"
         style="stroke-width:8.33333;fill:#ffffff;fill-opacity:1" />
      <path
         d="M 136.75,54.666667 C 123.08333,43.583333 105.08333,39.25 87.5,43 c -22.083333,4.583333 -40,22.583333 -44.583333,44.666667 -4.666667,22.666663 3.833333,45.166663 22,58.916663 4.916666,3.66667 8.333333,9.33334 9.5,15.91667 v 0.0833 C 74.583333,162.5 74.833333,162.5 75,162.5 h 50 c 0.16667,0 0.25,0 0.41667,0.0833 V 162.5 c 1.16666,-6.33333 4.91666,-12.16667 10.66666,-16.66667 C 150.16667,134.66667 158.33333,118 158.33333,100 158.33333,82.333333 150.5,65.833333 136.75,54.666667 Z m -5.5,49.500003 c -3.41667,0 -6.25,-2.83334 -6.25,-6.250003 C 125,85.25 114.75,75 102.08333,75 c -3.416663,0 -6.249997,-2.833333 -6.249997,-6.25 0,-3.416667 2.833334,-6.25 6.249997,-6.25 19.5,0 35.41667,15.916667 35.41667,35.416667 0,3.416663 -2.83333,6.250003 -6.25,6.250003 z"
         id="path18"
         style="stroke-width:8.33333;fill:#ffffff;fill-opacity:1" />
    </g>
  </g>
</svg>
