<?xml version="1.0" encoding="UTF-8" standalone="no"?>
<svg
   width="16"
   height="16"
   viewBox="0 0 16 16"
   version="1.1"
   inkscape:version="1.1.2 (0a00cf5339, 2022-02-04)"
   sodipodi:docname="maximize.svg"
   id="svg825"
   xmlns:inkscape="http://www.inkscape.org/namespaces/inkscape"
   xmlns:sodipodi="http://sodipodi.sourceforge.net/DTD/sodipodi-0.dtd"
   xmlns="http://www.w3.org/2000/svg"
   xmlns:svg="http://www.w3.org/2000/svg">
  <defs
     id="defs5" />
  <sodipodi:namedview
     id="namedview6"
     pagecolor="#424242"
     bordercolor="#666666"
     borderopacity="1.0"
     inkscape:pageshadow="2"
     inkscape:pageopacity="0"
     inkscape:pagecheckerboard="0"
     showgrid="false"
     inkscape:zoom="23.125"
     inkscape:cx="11.243243"
     inkscape:cy="11.978378"
     inkscape:window-width="1440"
     inkscape:window-height="742"
     inkscape:window-x="0"
     inkscape:window-y="32"
     inkscape:window-maximized="1"
     inkscape:current-layer="svg825" />
  <path
     d="M 6,4 C 4.892,4 4,4.892 4,6 v 4 c 0,1.108 0.89201,2 2,2 h 4 c 1.10801,0 2,-0.892 2,-2 V 6 C 12,4.892 11.10799,4 10,4 Z m 0,1 h 4 c 0.554,0 1,0.44602 1,1 v 4 c 0,0.55398 -0.44602,1 -1,1 H 6 C 5.44603,11 5.00001,10.55398 5.00001,10 V 6 C 5.00001,5.44602 5.44604,5 6,5 Z"
     id="path2930"
     style="fill:#ffffff" />
</svg>
