<?xml version="1.0" encoding="UTF-8" standalone="no"?>
<svg
   width="20"
   height="20"
   version="1.1"
   viewBox="0 0 20 20"
   id="svg4"
   sodipodi:docname="checkbox-checked-symbolic.svg"
   inkscape:version="1.1.1 (3bf5ae0d25, 2021-09-20, custom)"
   xmlns:inkscape="http://www.inkscape.org/namespaces/inkscape"
   xmlns:sodipodi="http://sodipodi.sourceforge.net/DTD/sodipodi-0.dtd"
   xmlns="http://www.w3.org/2000/svg"
   xmlns:svg="http://www.w3.org/2000/svg">
  <defs
     id="defs8" />
  <sodipodi:namedview
     id="namedview6"
     pagecolor="#ffffff"
     bordercolor="#666666"
     borderopacity="1.0"
     inkscape:pageshadow="2"
     inkscape:pageopacity="0.0"
     inkscape:pagecheckerboard="0"
     showgrid="false"
     inkscape:snap-global="false"
     inkscape:zoom="14.916666"
     inkscape:cx="7.9776538"
     inkscape:cy="5.1620113"
     inkscape:window-width="1920"
     inkscape:window-height="1012"
     inkscape:window-x="0"
     inkscape:window-y="32"
     inkscape:window-maximized="1"
     inkscape:current-layer="svg4">
    <inkscape:grid
       type="xygrid"
       id="grid825" />
  </sodipodi:namedview>
  <path
     id="path2"
     d="m 16.091797,6.5468751 c 0.127806,-3.5e-6 0.255581,0.04855 0.353515,0.1464844 0.195869,0.1958684 0.195869,0.5111627 0,0.7070308 L 9.3730471,14.472656 c -0.02449,0.02449 -0.05035,0.04611 -0.07815,0.06443 -0.02772,0.01839 -0.05585,0.03268 -0.08593,0.04492 -0.03009,0.01224 -0.06226,0.02122 -0.09376,0.02734 -0.03149,0.0061 -0.06375,0.0098 -0.09571,0.0098 -0.03195,0 -0.06226,-0.0036 -0.09375,-0.0098 -0.03149,-0.0061 -0.06367,-0.0151 -0.09375,-0.02734 -0.03009,-0.01224 -0.05818,-0.02656 -0.08593,-0.04492 -0.01389,-0.0092 -0.02786,-0.02051 -0.04101,-0.03125 -0.01312,-0.01071 -0.02679,-0.02099 -0.03903,-0.03323 l -4.18665,-4.188623 c -0.1958683,-0.195869 -0.1958687,-0.511162 5e-7,-0.707032 0.1958681,-0.195867 0.5111624,-0.195868 0.7070307,1e-6 l 3.8331198,3.835099 6.7187499,-6.7187499 c 0.09793,-0.097934 0.225707,-0.1464831 0.353516,-0.146484 z"
     sodipodi:nodetypes="cscscscscsccccsccccc" />
</svg>
