<?xml version="1.0" encoding="UTF-8" standalone="no"?>
<svg
   xmlns:dc="http://purl.org/dc/elements/1.1/"
   xmlns:cc="http://creativecommons.org/ns#"
   xmlns:rdf="http://www.w3.org/1999/02/22-rdf-syntax-ns#"
   xmlns:svg="http://www.w3.org/2000/svg"
   xmlns="http://www.w3.org/2000/svg"
   xmlns:sodipodi="http://sodipodi.sourceforge.net/DTD/sodipodi-0.dtd"
   xmlns:inkscape="http://www.inkscape.org/namespaces/inkscape"
   version="1.1"
   width="520"
   height="64"
   id="svg2"
   sodipodi:docname="Awesome_logo_horizontal3.svg"
   inkscape:version="0.92.0 r">
  <sodipodi:namedview
     pagecolor="#ffffff"
     bordercolor="#666666"
     borderopacity="1"
     objecttolerance="10"
     gridtolerance="10"
     guidetolerance="10"
     inkscape:pageopacity="0"
     inkscape:pageshadow="2"
     inkscape:window-width="1920"
     inkscape:window-height="1062"
     id="namedview42"
     showgrid="false"
     fit-margin-top="0"
     fit-margin-left="0"
     fit-margin-right="0"
     fit-margin-bottom="0"
     inkscape:zoom="1.3100951"
     inkscape:cx="208.7345"
     inkscape:cy="-24.8331"
     inkscape:window-x="0"
     inkscape:window-y="18"
     inkscape:window-maximized="1"
     inkscape:current-layer="svg2" />
  <metadata
     id="metadata8">
    <rdf:RDF>
      <cc:Work
         rdf:about="">
        <dc:format>image/svg+xml</dc:format>
        <dc:type
           rdf:resource="http://purl.org/dc/dcmitype/StillImage" />
        <dc:title></dc:title>
      </cc:Work>
    </rdf:RDF>
  </metadata>
  <defs
     id="defs6" />
  <path
     d="M 0,63.999999 V 22 H 43.999999 V 20 H 0 V 0 h 63.999999 v 63.999999 h -20 V 42 H 20 v 2 h 21.999999 v 19.999999 z"
     id="path10"
     style="fill:#535d6c"
     inkscape:connector-curvature="0" />
  <path
     style="fill:#535d6c"
     id="path5121"
     d="M 75.999999,0 H 118 v 43.999999 h 2 V 0 h 20 V 63.999999 H 75.999999 c 0.03867,-19.975266 1.21505,-20 22,-20 V 0 l -2,3.13e-4 v 44.03356 l -20,19.966102 z"
     inkscape:connector-curvature="0" />
  <path
     d="m 216,0 v 42 h -44 v 2 h 44 V 64 H 152 V 0 c 19.97527,0.03867 20,1.21505 20,22 h 44 l -3.1e-4,-2 H 171.96613 L 152.00002,0 Z"
     id="path5123"
     style="fill:#535d6c"
     inkscape:connector-curvature="0" />
  <path
     style="fill:#535d6c"
     id="path5125"
     d="M 292,63.999999 V 22 h -44 v -2 h 44 V 0 h -64 v 42.011827 l 20,-0.01183 v 0 h 24 v 2.09375 h -44 l -0.009,19.906249 z"
     inkscape:connector-curvature="0" />
  <path
     d="m 324.3125,63.999999 c 0,-43.882671 0.18277,-0.110242 -0.0915,-43.999999 h 0.88388 42.89515 V 0 h -64 c 0,63.768424 -0.009,0.109806 -0.009,63.999996 z"
     id="path5127"
     style="fill:#535d6c"
     inkscape:connector-curvature="0" />
  <path
     d="m 380,63.999999 h 42 V 20.000001 h 2 v 43.999998 h 20 V 0 h -64 c 0.0387,19.975267 1.21505,20.000001 22,20.000001 v 43.999998 l -2,-3.13e-4 V 19.966127 L 380,2.4e-5 Z"
     id="path5129"
     style="fill:#535d6c"
     inkscape:connector-curvature="0" />
  <path
     style="fill:#535d6c"
     id="path5131"
     d="m 520,0 v 42 h -44 v 2 h 44 V 64 H 456 V 0 c 19.97527,0.03867 20,1.21505 20,22 h 44 l -3.1e-4,-2 H 475.96613 L 456.00002,0 Z"
     inkscape:connector-curvature="0" />
  <path
     style="fill:#535d6c"
     id="path5135"
     d="m 332.34911,63.999999 c 0,-44.007671 -0.003,-0.02174 -0.003,-43.999999 0,0 30.24668,0 35.65403,0 V 0 h -64 c 0,63.768424 -0.009,0.109806 -0.009,63.999996 z"
     inkscape:connector-curvature="0" />
  <path
     d="m 334.99382,63.999999 c 0,0 -0.003,-0.02174 -0.003,-43.999999 h 32.71653 V 0 h -63.70721 c 0,63.768424 -0.009,0.109806 -0.009,63.999996 z"
     id="path5137"
     style="fill:#535d6c"
     inkscape:connector-curvature="0" />
  <path
     style="fill:#535d6c"
     id="path5162"
     d="m 347.67867,0 c 0,43.882671 -0.18277,0.110242 0.0915,43.999999 h -0.88388 -42.89515 v 20 h 64 c 0,-63.768424 0.009,-0.109806 0.009,-63.999996 z"
     inkscape:connector-curvature="0" />
  <path
     d="m 339.64206,0 c 0,44.007671 0.003,0.02174 0.003,43.999999 0,0 -30.24668,0 -35.65403,0 v 20 h 64 c 0,-63.768424 0.009,-0.109806 0.009,-63.999996 z"
     id="path5164"
     style="fill:#535d6c"
     inkscape:connector-curvature="0" />
  <path
     style="fill:#535d6c"
     id="path5166"
     d="m 336.99735,0 c 0,0 0.003,0.02174 0.003,43.999999 h -32.71653 v 20 h 63.70721 c 0,-63.768424 0.009,-0.109806 0.009,-63.999996 z"
     inkscape:connector-curvature="0" />
</svg>
