<?xml version="1.0" encoding="UTF-8" standalone="no"?>
<svg
   xmlns:dc="http://purl.org/dc/elements/1.1/"
   xmlns:cc="http://creativecommons.org/ns#"
   xmlns:rdf="http://www.w3.org/1999/02/22-rdf-syntax-ns#"
   xmlns:svg="http://www.w3.org/2000/svg"
   xmlns="http://www.w3.org/2000/svg"
   xmlns:sodipodi="http://sodipodi.sourceforge.net/DTD/sodipodi-0.dtd"
   xmlns:inkscape="http://www.inkscape.org/namespaces/inkscape"
   version="1.1"
   width="240"
   height="240"
   viewBox="0 0 240 240"
   id="svg4"
   sodipodi:docname="brightness-7.svg"
   inkscape:version="0.92.4 5da689c313, 2019-01-14">
  <metadata
     id="metadata10">
    <rdf:RDF>
      <cc:Work
         rdf:about="">
        <dc:format>image/svg+xml</dc:format>
        <dc:type
           rdf:resource="http://purl.org/dc/dcmitype/StillImage" />
        <dc:title></dc:title>
      </cc:Work>
    </rdf:RDF>
  </metadata>
  <defs
     id="defs8" />
  <sodipodi:namedview
     pagecolor="#ffffff"
     bordercolor="#666666"
     borderopacity="1"
     objecttolerance="10"
     gridtolerance="10"
     guidetolerance="10"
     inkscape:pageopacity="0"
     inkscape:pageshadow="2"
     inkscape:window-width="1321"
     inkscape:window-height="740"
     id="namedview6"
     showgrid="false"
     inkscape:pagecheckerboard="true"
     inkscape:zoom="0.98333333"
     inkscape:cx="-267.45763"
     inkscape:cy="120"
     inkscape:window-x="45"
     inkscape:window-y="28"
     inkscape:window-maximized="0"
     inkscape:current-layer="svg4" />
  <path
     d="M 120,84.6331 A 35.366932,35.366932 0 0 0 84.6331,120 35.366932,35.366932 0 0 0 120,155.3669 35.366932,35.366932 0 0 0 155.3669,120 35.366932,35.366932 0 0 0 120,84.6331 m 0,88.4173 A 53.050398,53.050398 0 0 1 66.9496,120 53.050398,53.050398 0 0 1 120,66.9496 53.050398,53.050398 0 0 1 173.0504,120 53.050398,53.050398 0 0 1 120,173.0504 M 190.7339,90.7339 V 49.2661 H 149.2661 L 120,20 90.7339,49.2661 H 49.2661 V 90.7339 L 20,120 49.2661,149.2661 v 41.4678 H 90.7339 L 120,220 149.2661,190.7339 h 41.4678 V 149.2661 L 220,120 Z"
     id="path2"
     inkscape:connector-curvature="0"
     style="fill:#ffffff;stroke-width:8.84173298" />
</svg>
