<?xml version="1.0" encoding="UTF-8" standalone="no"?>
<svg
   xmlns:dc="http://purl.org/dc/elements/1.1/"
   xmlns:cc="http://creativecommons.org/ns#"
   xmlns:rdf="http://www.w3.org/1999/02/22-rdf-syntax-ns#"
   xmlns:svg="http://www.w3.org/2000/svg"
   xmlns="http://www.w3.org/2000/svg"
   width="135.46667mm"
   height="135.46666mm"
   viewBox="0 0 135.46668 135.46666"
   version="1.1"
   id="svg8">
  <defs
     id="defs2" />
  <metadata
     id="metadata5">
    <rdf:RDF>
      <cc:Work
         rdf:about="">
        <dc:format>image/svg+xml</dc:format>
        <dc:type
           rdf:resource="http://purl.org/dc/dcmitype/StillImage" />
        <dc:title />
      </cc:Work>
    </rdf:RDF>
  </metadata>
  <g
     id="layer1"
     transform="translate(-20.39957,-63.899563)">
    <path
       style="color:#000000;font-style:normal;font-variant:normal;font-weight:normal;font-stretch:normal;font-size:medium;line-height:normal;font-family:sans-serif;font-variant-ligatures:normal;font-variant-position:normal;font-variant-caps:normal;font-variant-numeric:normal;font-variant-alternates:normal;font-variant-east-asian:normal;font-feature-settings:normal;font-variation-settings:normal;text-indent:0;text-align:start;text-decoration:none;text-decoration-line:none;text-decoration-style:solid;text-decoration-color:#000000;letter-spacing:normal;word-spacing:normal;text-transform:none;writing-mode:lr-tb;direction:ltr;text-orientation:mixed;dominant-baseline:auto;baseline-shift:baseline;text-anchor:start;white-space:normal;shape-padding:0;shape-margin:0;inline-size:0;clip-rule:nonzero;display:inline;overflow:visible;visibility:visible;isolation:auto;mix-blend-mode:normal;color-interpolation:sRGB;color-interpolation-filters:linearRGB;solid-color:#000000;solid-opacity:1;vector-effect:none;fill:#bebebe;fill-opacity:1;fill-rule:nonzero;stroke:none;stroke-linecap:butt;stroke-linejoin:round;stroke-miterlimit:20.1;stroke-dasharray:none;stroke-dashoffset:0;stroke-opacity:1;color-rendering:auto;image-rendering:auto;shape-rendering:auto;text-rendering:auto;enable-background:accumulate;stop-color:#000000;stop-opacity:1;opacity:1"
       d="M 50.568359 78.638672 C 42.116879 78.638672 35.138672 85.616879 35.138672 94.068359 L 35.138672 169.19727 C 35.138672 177.64875 42.116879 184.62891 50.568359 184.62891 L 125.69727 184.62891 C 134.14875 184.62891 141.12891 177.64875 141.12891 169.19727 L 141.12891 94.068359 C 141.12891 85.616879 134.14875 78.638672 125.69727 78.638672 L 50.568359 78.638672 z M 50.568359 89.845703 L 125.69727 89.845703 C 128.13295 89.845703 129.91992 91.632673 129.91992 94.068359 L 129.91992 169.19727 C 129.91992 171.63295 128.13295 173.41992 125.69727 173.41992 L 50.568359 173.41992 C 48.132673 173.41992 46.345703 171.63295 46.345703 169.19727 L 46.345703 94.068359 C 46.345703 91.632673 48.132673 89.845703 50.568359 89.845703 z "
       id="rect841" />
    <path
       id="path29116"
       style="color:#000000;font-style:normal;font-variant:normal;font-weight:normal;font-stretch:normal;font-size:medium;line-height:normal;font-family:sans-serif;font-variant-ligatures:normal;font-variant-position:normal;font-variant-caps:normal;font-variant-numeric:normal;font-variant-alternates:normal;font-variant-east-asian:normal;font-feature-settings:normal;font-variation-settings:normal;text-indent:0;text-align:start;text-decoration:none;text-decoration-line:none;text-decoration-style:solid;text-decoration-color:#000000;letter-spacing:normal;word-spacing:normal;text-transform:none;writing-mode:lr-tb;direction:ltr;text-orientation:mixed;dominant-baseline:auto;baseline-shift:baseline;text-anchor:start;white-space:normal;shape-padding:0;shape-margin:0;inline-size:0;clip-rule:nonzero;display:inline;overflow:visible;visibility:visible;isolation:auto;mix-blend-mode:normal;color-interpolation:sRGB;color-interpolation-filters:linearRGB;solid-color:#000000;solid-opacity:1;vector-effect:none;fill:#bebebe;fill-opacity:1;fill-rule:nonzero;stroke:none;stroke-width:6.05197;stroke-linecap:butt;stroke-linejoin:round;stroke-miterlimit:20.1;stroke-dasharray:none;stroke-dashoffset:0;stroke-opacity:1;color-rendering:auto;image-rendering:auto;shape-rendering:auto;text-rendering:auto;enable-background:accumulate;stop-color:#000000"
       d="M 172.57617 0.00390625 C 167.67701 0.00390625 163.25547 0.046599262 160.03516 0.12109375 C 158.425 0.15851107 157.12345 0.20178656 156.17383 0.25390625 C 155.69902 0.27998499 155.31958 0.30214963 154.9707 0.34179688 C 154.79628 0.36145042 154.64828 0.37637281 154.37305 0.43945312 C 154.23543 0.4708232 154.08019 0.49321452 153.7168 0.66015625 C 153.62594 0.70188223 153.52132 0.75784023 153.39062 0.83789062 C 153.25993 0.91797881 152.91988 1.1974802 152.91797 1.1992188 C 152.91606 1.2009725 152.29979 1.9806644 152.29883 1.9824219 C 152.29787 1.9841831 151.92969 3.4337818 151.92969 3.4355469 L 151.92969 67.539062 C 151.92969 67.540828 152.29785 68.984567 152.29883 68.986328 C 152.29979 68.988086 152.91606 69.77559 152.91797 69.777344 C 152.91988 69.779097 153.25993 70.050771 153.39062 70.130859 C 153.52132 70.210948 153.62594 70.266868 153.7168 70.308594 C 154.0802 70.475535 154.23542 70.497776 154.37305 70.529297 C 154.64831 70.592377 154.79626 70.605157 154.9707 70.625 C 155.31959 70.664647 155.69902 70.694662 156.17383 70.720703 C 157.12345 70.772823 158.425 70.816249 160.03516 70.853516 C 163.25547 70.928048 167.67701 70.972656 172.57617 70.972656 C 177.47534 70.972656 181.89883 70.928048 185.11914 70.853516 C 186.7293 70.816098 188.0289 70.772823 188.97852 70.720703 C 189.45332 70.694624 189.83471 70.664647 190.18359 70.625 C 190.35802 70.605346 190.50601 70.592377 190.78125 70.529297 C 190.91886 70.497927 191.07411 70.475535 191.4375 70.308594 C 191.52836 70.266868 191.63102 70.21091 191.76172 70.130859 C 191.89241 70.050771 192.23247 69.779082 192.23438 69.777344 C 192.23628 69.77559 192.85451 68.988086 192.85547 68.986328 C 192.85642 68.984567 193.22461 67.540828 193.22461 67.539062 L 193.22461 3.4355469 C 193.22461 3.4337818 192.85645 1.9841831 192.85547 1.9824219 C 192.85451 1.9806644 192.23628 1.2009725 192.23438 1.1992188 C 192.23247 1.197465 191.89241 0.91794102 191.76172 0.83789062 C 191.63102 0.75780244 191.52836 0.70188223 191.4375 0.66015625 C 191.0741 0.49321452 190.91887 0.47097438 190.78125 0.43945312 C 190.50599 0.37637281 190.35803 0.36163939 190.18359 0.34179688 C 189.83471 0.30214963 189.45332 0.27998499 188.97852 0.25390625 C 188.0289 0.20178656 186.7293 0.15835989 185.11914 0.12109375 C 181.89883 0.046599262 177.47534 0.00390625 172.57617 0.00390625 z "
       transform="matrix(0.26458333,0,0,0.26458333,20.39957,63.899563)" />
    <path
       id="path29110"
       style="color:#000000;font-style:normal;font-variant:normal;font-weight:normal;font-stretch:normal;font-size:medium;line-height:normal;font-family:sans-serif;font-variant-ligatures:normal;font-variant-position:normal;font-variant-caps:normal;font-variant-numeric:normal;font-variant-alternates:normal;font-variant-east-asian:normal;font-feature-settings:normal;font-variation-settings:normal;text-indent:0;text-align:start;text-decoration:none;text-decoration-line:none;text-decoration-style:solid;text-decoration-color:#000000;letter-spacing:normal;word-spacing:normal;text-transform:none;writing-mode:lr-tb;direction:ltr;text-orientation:mixed;dominant-baseline:auto;baseline-shift:baseline;text-anchor:start;white-space:normal;shape-padding:0;shape-margin:0;inline-size:0;clip-rule:nonzero;display:inline;overflow:visible;visibility:visible;isolation:auto;mix-blend-mode:normal;color-interpolation:sRGB;color-interpolation-filters:linearRGB;solid-color:#000000;solid-opacity:1;vector-effect:none;fill:#bebebe;fill-opacity:1;fill-rule:nonzero;stroke:none;stroke-width:6.05197;stroke-linecap:butt;stroke-linejoin:round;stroke-miterlimit:20.1;stroke-dasharray:none;stroke-dashoffset:0;stroke-opacity:1;color-rendering:auto;image-rendering:auto;shape-rendering:auto;text-rendering:auto;enable-background:accumulate;stop-color:#000000"
       d="M 256 0.00390625 C 251.10084 0.00390625 246.67735 0.046599262 243.45703 0.12109375 C 241.84687 0.15851107 240.54727 0.20178656 239.59766 0.25390625 C 239.12285 0.27998499 238.74341 0.30214963 238.39453 0.34179688 C 238.22011 0.36145042 238.07211 0.37637281 237.79688 0.43945312 C 237.65926 0.4708232 237.50207 0.49321452 237.13867 0.66015625 C 237.04781 0.70188223 236.94515 0.75784023 236.81445 0.83789062 C 236.68376 0.91797881 236.3437 1.1974802 236.3418 1.1992188 C 236.33989 1.2009725 235.72166 1.9806644 235.7207 1.9824219 C 235.71975 1.9841831 235.35156 3.4337818 235.35156 3.4355469 L 235.35156 67.539062 C 235.35156 67.540828 235.71972 68.984567 235.7207 68.986328 C 235.72166 68.988086 236.33989 69.77559 236.3418 69.777344 C 236.3437 69.779097 236.68376 70.050771 236.81445 70.130859 C 236.94515 70.210948 237.04781 70.266868 237.13867 70.308594 C 237.50207 70.475535 237.65925 70.497776 237.79688 70.529297 C 238.07214 70.592377 238.22009 70.605157 238.39453 70.625 C 238.74342 70.664647 239.12285 70.694662 239.59766 70.720703 C 240.54727 70.772823 241.84687 70.816249 243.45703 70.853516 C 246.67735 70.928048 251.10084 70.972656 256 70.972656 C 260.89917 70.972656 265.3207 70.928048 268.54102 70.853516 C 270.15117 70.816098 271.45273 70.772823 272.40234 70.720703 C 272.87715 70.694624 273.25659 70.664647 273.60547 70.625 C 273.77989 70.605346 273.92789 70.592377 274.20312 70.529297 C 274.34074 70.497927 274.49793 70.475535 274.86133 70.308594 C 274.95219 70.266868 275.05485 70.21091 275.18555 70.130859 C 275.31624 70.050771 275.6563 69.779082 275.6582 69.777344 C 275.66011 69.77559 276.27639 68.988086 276.27734 68.986328 C 276.2783 68.984567 276.64648 67.540828 276.64648 67.539062 L 276.64648 3.4355469 C 276.64648 3.4337818 276.27833 1.9841831 276.27734 1.9824219 C 276.27639 1.9806644 275.66011 1.2009725 275.6582 1.1992188 C 275.6563 1.197465 275.31624 0.91794102 275.18555 0.83789062 C 275.05485 0.75780244 274.95219 0.70188223 274.86133 0.66015625 C 274.49793 0.49321452 274.34075 0.47097438 274.20312 0.43945312 C 273.92786 0.37637281 273.77991 0.36163939 273.60547 0.34179688 C 273.25658 0.30214963 272.87715 0.27998499 272.40234 0.25390625 C 271.45273 0.20178656 270.15117 0.15835989 268.54102 0.12109375 C 265.3207 0.046599262 260.89917 0.00390625 256 0.00390625 z "
       transform="matrix(0.26458333,0,0,0.26458333,20.39957,63.899563)" />
    <path
       id="path29104"
       style="color:#000000;font-style:normal;font-variant:normal;font-weight:normal;font-stretch:normal;font-size:medium;line-height:normal;font-family:sans-serif;font-variant-ligatures:normal;font-variant-position:normal;font-variant-caps:normal;font-variant-numeric:normal;font-variant-alternates:normal;font-variant-east-asian:normal;font-feature-settings:normal;font-variation-settings:normal;text-indent:0;text-align:start;text-decoration:none;text-decoration-line:none;text-decoration-style:solid;text-decoration-color:#000000;letter-spacing:normal;word-spacing:normal;text-transform:none;writing-mode:lr-tb;direction:ltr;text-orientation:mixed;dominant-baseline:auto;baseline-shift:baseline;text-anchor:start;white-space:normal;shape-padding:0;shape-margin:0;inline-size:0;clip-rule:nonzero;display:inline;overflow:visible;visibility:visible;isolation:auto;mix-blend-mode:normal;color-interpolation:sRGB;color-interpolation-filters:linearRGB;solid-color:#000000;solid-opacity:1;vector-effect:none;fill:#bebebe;fill-opacity:1;fill-rule:nonzero;stroke:none;stroke-width:6.05197;stroke-linecap:butt;stroke-linejoin:round;stroke-miterlimit:20.1;stroke-dasharray:none;stroke-dashoffset:0;stroke-opacity:1;color-rendering:auto;image-rendering:auto;shape-rendering:auto;text-rendering:auto;enable-background:accumulate;stop-color:#000000"
       d="M 339.42188 0.00390625 C 334.5227 0.00390625 330.10117 0.046599262 326.88086 0.12109375 C 325.27071 0.15851107 323.96918 0.20178656 323.01953 0.25390625 C 322.54475 0.27998499 322.16526 0.30214963 321.81641 0.34179688 C 321.64179 0.36145042 321.49394 0.37637281 321.21875 0.43945312 C 321.08118 0.4708232 320.92583 0.49321452 320.5625 0.66015625 C 320.47179 0.70188223 320.36672 0.75784023 320.23633 0.83789062 C 320.10556 0.91797881 319.76556 1.1974802 319.76367 1.1992188 C 319.76174 1.2009725 319.14551 1.9806644 319.14453 1.9824219 C 319.14359 1.9841831 318.77539 3.4337818 318.77539 3.4355469 L 318.77539 67.539062 C 318.77539 67.540828 319.1434 68.984567 319.14453 68.986328 C 319.14551 68.988086 319.76174 69.77559 319.76367 69.777344 C 319.76556 69.779097 320.10556 70.050771 320.23633 70.130859 C 320.3671 70.210948 320.47179 70.266868 320.5625 70.308594 C 320.92609 70.475535 321.08114 70.497776 321.21875 70.529297 C 321.4939 70.592377 321.64194 70.605157 321.81641 70.625 C 322.16526 70.664647 322.54475 70.694662 323.01953 70.720703 C 323.96918 70.772823 325.27071 70.816249 326.88086 70.853516 C 330.10117 70.928048 334.5227 70.972656 339.42188 70.972656 C 344.32105 70.972656 348.74454 70.928048 351.96484 70.853516 C 353.575 70.816098 354.87461 70.772823 355.82422 70.720703 C 356.29904 70.694624 356.67846 70.664647 357.02734 70.625 C 357.20196 70.605346 357.3518 70.592377 357.62695 70.529297 C 357.76453 70.497927 357.91988 70.475535 358.2832 70.308594 C 358.37391 70.266868 358.47703 70.21091 358.60742 70.130859 C 358.73819 70.050771 359.07819 69.779082 359.08008 69.777344 C 359.08197 69.77559 359.70023 68.988086 359.70117 68.986328 C 359.70215 68.984567 360.07031 67.540828 360.07031 67.539062 L 360.07031 3.4355469 C 360.07031 3.4337818 359.70231 1.9841831 359.70117 1.9824219 C 359.70023 1.9806644 359.08197 1.2009725 359.08008 1.1992188 C 359.07819 1.197465 358.73819 0.91794102 358.60742 0.83789062 C 358.47665 0.75780244 358.37391 0.70188223 358.2832 0.66015625 C 357.91961 0.49321452 357.7646 0.47097438 357.62695 0.43945312 C 357.3518 0.37637281 357.20181 0.36163939 357.02734 0.34179688 C 356.67849 0.30214963 356.29904 0.27998499 355.82422 0.25390625 C 354.87461 0.20178656 353.575 0.15835989 351.96484 0.12109375 C 348.74454 0.046599262 344.32105 0.00390625 339.42188 0.00390625 z "
       transform="matrix(0.26458333,0,0,0.26458333,20.39957,63.899563)" />
    <path
       id="path29098"
       style="color:#000000;font-style:normal;font-variant:normal;font-weight:normal;font-stretch:normal;font-size:medium;line-height:normal;font-family:sans-serif;font-variant-ligatures:normal;font-variant-position:normal;font-variant-caps:normal;font-variant-numeric:normal;font-variant-alternates:normal;font-variant-east-asian:normal;font-feature-settings:normal;font-variation-settings:normal;text-indent:0;text-align:start;text-decoration:none;text-decoration-line:none;text-decoration-style:solid;text-decoration-color:#000000;letter-spacing:normal;word-spacing:normal;text-transform:none;writing-mode:lr-tb;direction:ltr;text-orientation:mixed;dominant-baseline:auto;baseline-shift:baseline;text-anchor:start;white-space:normal;shape-padding:0;shape-margin:0;inline-size:0;clip-rule:nonzero;display:inline;overflow:visible;visibility:visible;isolation:auto;mix-blend-mode:normal;color-interpolation:sRGB;color-interpolation-filters:linearRGB;solid-color:#000000;solid-opacity:1;vector-effect:none;fill:#bebebe;fill-opacity:1;fill-rule:nonzero;stroke:none;stroke-width:6.05197;stroke-linecap:butt;stroke-linejoin:round;stroke-miterlimit:20.1;stroke-dasharray:none;stroke-dashoffset:0;stroke-opacity:1;color-rendering:auto;image-rendering:auto;shape-rendering:auto;text-rendering:auto;enable-background:accumulate;stop-color:#000000"
       d="M 339.42188 441.02734 C 334.5227 441.02734 330.10117 441.07007 326.88086 441.14453 C 325.27071 441.18233 323.96918 441.233 323.01953 441.28516 C 322.54475 441.31161 322.16526 441.33531 321.81641 441.375 C 321.64179 441.3939 321.49394 441.40872 321.21875 441.4707 C 321.08118 441.50094 320.92583 441.52435 320.5625 441.69141 C 320.47179 441.73336 320.36672 441.78901 320.23633 441.86914 C 320.10556 441.94927 319.76556 442.22114 319.76367 442.22266 C 319.76174 442.22439 319.14551 443.01193 319.14453 443.01367 C 319.14359 443.01545 318.77539 444.45725 318.77539 444.45898 L 318.77539 508.56445 C 318.77539 508.56623 319.1434 510.0158 319.14453 510.01758 C 319.14551 510.01932 319.76174 510.80686 319.76367 510.80859 C 319.76556 510.81037 320.10556 511.08236 320.23633 511.16211 C 320.3671 511.24224 320.47179 511.29789 320.5625 511.33984 C 320.92609 511.5069 321.08114 511.5288 321.21875 511.56055 C 321.4939 511.62366 321.64194 511.6366 321.81641 511.65625 C 322.16526 511.69594 322.54475 511.72002 323.01953 511.74609 C 323.96918 511.79825 325.27071 511.84187 326.88086 511.87891 C 330.10117 511.95336 334.5227 512.00391 339.42188 512.00391 C 344.32105 512.00391 348.74454 511.95336 351.96484 511.87891 C 353.575 511.84111 354.87461 511.79787 355.82422 511.74609 C 356.29904 511.71964 356.67846 511.69556 357.02734 511.65625 C 357.20196 511.63735 357.3518 511.62253 357.62695 511.56055 C 357.76453 511.53031 357.91988 511.5069 358.2832 511.33984 C 358.37391 511.29827 358.47703 511.24224 358.60742 511.16211 C 358.73819 511.08198 359.07819 510.81011 359.08008 510.80859 C 359.08197 510.80686 359.70023 510.01932 359.70117 510.01758 C 359.70215 510.0158 360.07031 508.56623 360.07031 508.56445 L 360.07031 444.45898 C 360.07031 444.45725 359.70231 443.01545 359.70117 443.01367 C 359.70023 443.01193 359.08197 442.22439 359.08008 442.22266 C 359.07819 442.22088 358.73819 441.94889 358.60742 441.86914 C 358.47665 441.78901 358.37391 441.73336 358.2832 441.69141 C 357.91961 441.52435 357.7646 441.50245 357.62695 441.4707 C 357.3518 441.40759 357.20181 441.39465 357.02734 441.375 C 356.67849 441.33531 356.29904 441.31123 355.82422 441.28516 C 354.87461 441.233 353.575 441.18157 351.96484 441.14453 C 348.74454 441.07007 344.32105 441.02734 339.42188 441.02734 z "
       transform="matrix(0.26458333,0,0,0.26458333,20.39957,63.899563)" />
    <path
       id="path29092"
       style="color:#000000;font-style:normal;font-variant:normal;font-weight:normal;font-stretch:normal;font-size:medium;line-height:normal;font-family:sans-serif;font-variant-ligatures:normal;font-variant-position:normal;font-variant-caps:normal;font-variant-numeric:normal;font-variant-alternates:normal;font-variant-east-asian:normal;font-feature-settings:normal;font-variation-settings:normal;text-indent:0;text-align:start;text-decoration:none;text-decoration-line:none;text-decoration-style:solid;text-decoration-color:#000000;letter-spacing:normal;word-spacing:normal;text-transform:none;writing-mode:lr-tb;direction:ltr;text-orientation:mixed;dominant-baseline:auto;baseline-shift:baseline;text-anchor:start;white-space:normal;shape-padding:0;shape-margin:0;inline-size:0;clip-rule:nonzero;display:inline;overflow:visible;visibility:visible;isolation:auto;mix-blend-mode:normal;color-interpolation:sRGB;color-interpolation-filters:linearRGB;solid-color:#000000;solid-opacity:1;vector-effect:none;fill:#bebebe;fill-opacity:1;fill-rule:nonzero;stroke:none;stroke-width:6.05197;stroke-linecap:butt;stroke-linejoin:round;stroke-miterlimit:20.1;stroke-dasharray:none;stroke-dashoffset:0;stroke-opacity:1;color-rendering:auto;image-rendering:auto;shape-rendering:auto;text-rendering:auto;enable-background:accumulate;stop-color:#000000"
       d="M 256 441.02734 C 251.10084 441.02734 246.67735 441.07007 243.45703 441.14453 C 241.84687 441.18233 240.54727 441.233 239.59766 441.28516 C 239.12285 441.31161 238.74341 441.33531 238.39453 441.375 C 238.22011 441.3939 238.07211 441.40872 237.79688 441.4707 C 237.65926 441.50094 237.50207 441.52435 237.13867 441.69141 C 237.04781 441.73336 236.94515 441.78901 236.81445 441.86914 C 236.68376 441.94927 236.3437 442.22114 236.3418 442.22266 C 236.33989 442.22439 235.72166 443.01193 235.7207 443.01367 C 235.71975 443.01545 235.35156 444.45725 235.35156 444.45898 L 235.35156 508.56445 C 235.35156 508.56623 235.71972 510.0158 235.7207 510.01758 C 235.72166 510.01932 236.33989 510.80686 236.3418 510.80859 C 236.3437 510.81037 236.68376 511.08236 236.81445 511.16211 C 236.94515 511.24224 237.04781 511.29789 237.13867 511.33984 C 237.50207 511.5069 237.65925 511.5288 237.79688 511.56055 C 238.07214 511.62366 238.22009 511.6366 238.39453 511.65625 C 238.74342 511.69594 239.12285 511.72002 239.59766 511.74609 C 240.54727 511.79825 241.84687 511.84187 243.45703 511.87891 C 246.67735 511.95336 251.10084 512.00391 256 512.00391 C 260.89917 512.00391 265.3207 511.95336 268.54102 511.87891 C 270.15117 511.84111 271.45273 511.79787 272.40234 511.74609 C 272.87715 511.71964 273.25659 511.69556 273.60547 511.65625 C 273.77989 511.63735 273.92789 511.62253 274.20312 511.56055 C 274.34074 511.53031 274.49793 511.5069 274.86133 511.33984 C 274.95219 511.29827 275.05485 511.24224 275.18555 511.16211 C 275.31624 511.08198 275.6563 510.81011 275.6582 510.80859 C 275.66011 510.80686 276.27639 510.01932 276.27734 510.01758 C 276.2783 510.0158 276.64648 508.56623 276.64648 508.56445 L 276.64648 444.45898 C 276.64648 444.45725 276.27833 443.01545 276.27734 443.01367 C 276.27639 443.01193 275.66011 442.22439 275.6582 442.22266 C 275.6563 442.22088 275.31624 441.94889 275.18555 441.86914 C 275.05485 441.78901 274.95219 441.73336 274.86133 441.69141 C 274.49793 441.52435 274.34075 441.50245 274.20312 441.4707 C 273.92786 441.40759 273.77991 441.39465 273.60547 441.375 C 273.25658 441.33531 272.87715 441.31123 272.40234 441.28516 C 271.45273 441.233 270.15117 441.18157 268.54102 441.14453 C 265.3207 441.07007 260.89917 441.02734 256 441.02734 z "
       transform="matrix(0.26458333,0,0,0.26458333,20.39957,63.899563)" />
    <path
       id="path29086"
       style="color:#000000;font-style:normal;font-variant:normal;font-weight:normal;font-stretch:normal;font-size:medium;line-height:normal;font-family:sans-serif;font-variant-ligatures:normal;font-variant-position:normal;font-variant-caps:normal;font-variant-numeric:normal;font-variant-alternates:normal;font-variant-east-asian:normal;font-feature-settings:normal;font-variation-settings:normal;text-indent:0;text-align:start;text-decoration:none;text-decoration-line:none;text-decoration-style:solid;text-decoration-color:#000000;letter-spacing:normal;word-spacing:normal;text-transform:none;writing-mode:lr-tb;direction:ltr;text-orientation:mixed;dominant-baseline:auto;baseline-shift:baseline;text-anchor:start;white-space:normal;shape-padding:0;shape-margin:0;inline-size:0;clip-rule:nonzero;display:inline;overflow:visible;visibility:visible;isolation:auto;mix-blend-mode:normal;color-interpolation:sRGB;color-interpolation-filters:linearRGB;solid-color:#000000;solid-opacity:1;vector-effect:none;fill:#bebebe;fill-opacity:1;fill-rule:nonzero;stroke:none;stroke-width:6.05197;stroke-linecap:butt;stroke-linejoin:round;stroke-miterlimit:20.1;stroke-dasharray:none;stroke-dashoffset:0;stroke-opacity:1;color-rendering:auto;image-rendering:auto;shape-rendering:auto;text-rendering:auto;enable-background:accumulate;stop-color:#000000"
       d="M 172.57812 444.05469 C 162.81737 444.05469 154.95898 444.23492 154.95898 444.46094 L 154.95898 508.56641 C 154.95898 508.79227 162.81737 508.97461 172.57812 508.97461 C 182.33888 508.97461 190.19531 508.79242 190.19531 508.56641 L 190.19531 444.46094 C 190.19531 444.23507 182.33888 444.05469 172.57812 444.05469 z "
       transform="matrix(0.26458333,0,0,0.26458333,20.39957,63.899563)" />
    <path
       style="color:#000000;font-style:normal;font-variant:normal;font-weight:normal;font-stretch:normal;font-size:medium;line-height:normal;font-family:sans-serif;font-variant-ligatures:normal;font-variant-position:normal;font-variant-caps:normal;font-variant-numeric:normal;font-variant-alternates:normal;font-variant-east-asian:normal;font-feature-settings:normal;font-variation-settings:normal;text-indent:0;text-align:start;text-decoration:none;text-decoration-line:none;text-decoration-style:solid;text-decoration-color:#000000;letter-spacing:normal;word-spacing:normal;text-transform:none;writing-mode:lr-tb;direction:ltr;text-orientation:mixed;dominant-baseline:auto;baseline-shift:baseline;text-anchor:start;white-space:normal;shape-padding:0;shape-margin:0;inline-size:0;clip-rule:nonzero;display:inline;overflow:visible;visibility:visible;isolation:auto;mix-blend-mode:normal;color-interpolation:sRGB;color-interpolation-filters:linearRGB;solid-color:#000000;solid-opacity:1;vector-effect:none;fill:#bebebe;fill-opacity:1;fill-rule:nonzero;stroke:none;stroke-linecap:butt;stroke-linejoin:round;stroke-miterlimit:20.1;stroke-dasharray:none;stroke-dashoffset:0;stroke-opacity:1;color-rendering:auto;image-rendering:auto;shape-rendering:auto;text-rendering:auto;enable-background:accumulate;stop-color:#000000"
       d="m 66.060547,199.36719 c 1.296237,0 2.466318,-0.0135 3.318359,-0.0332 0.426021,-0.01 0.770232,-0.0214 1.021485,-0.0351 0.125626,-0.007 0.226051,-0.013 0.318359,-0.0234 0.04615,-0.005 0.08538,-0.009 0.158203,-0.0254 0.03641,-0.008 0.07768,-0.0144 0.173828,-0.0586 0.02404,-0.011 0.05136,-0.0257 0.08594,-0.0469 0.03458,-0.0212 0.124495,-0.0933 0.125,-0.0937 5.04e-4,-4.6e-4 0.163809,-0.20852 0.164062,-0.20898 2.53e-4,-4.7e-4 0.09766,-0.3843 0.09766,-0.38477 V 181.4962 c 0,-4.6e-4 -0.0974,-0.38234 -0.09766,-0.38281 -2.53e-4,-4.6e-4 -0.163558,-0.20852 -0.164062,-0.20898 -5.05e-4,-4.7e-4 -0.09042,-0.0726 -0.125,-0.0937 -0.03458,-0.0212 -0.0619,-0.0358 -0.08594,-0.0469 -0.09615,-0.0442 -0.137415,-0.0502 -0.173828,-0.0586 -0.07283,-0.0167 -0.112049,-0.0202 -0.158203,-0.0254 -0.09231,-0.0105 -0.192733,-0.0165 -0.318359,-0.0234 -0.251253,-0.0138 -0.595464,-0.0273 -1.021485,-0.0371 -0.852041,-0.0197 -2.022122,-0.0312 -3.318359,-0.0312 -1.296237,0 -2.466318,0.0115 -3.318359,0.0312 -0.426021,0.01 -0.770232,0.0233 -1.021485,0.0371 -0.125626,0.007 -0.226051,0.0129 -0.318359,0.0234 -0.04615,0.005 -0.08538,0.009 -0.158203,0.0254 -0.03641,0.008 -0.07768,0.0144 -0.173829,0.0586 -0.02404,0.0111 -0.05136,0.0257 -0.08594,0.0469 -0.03458,0.0212 -0.124495,0.0933 -0.125,0.0937 -5.05e-4,4.6e-4 -0.163809,0.20852 -0.164063,0.20898 -2.53e-4,4.7e-4 -0.09766,0.38235 -0.09766,0.38281 v 16.96094 c 0,4.7e-4 0.0974,0.3843 0.09766,0.38477 2.54e-4,4.6e-4 0.163558,0.20852 0.164063,0.20898 5.05e-4,4.7e-4 0.09042,0.0726 0.125,0.0937 0.03458,0.0212 0.0619,0.0358 0.08594,0.0469 0.09615,0.0442 0.137415,0.0502 0.173829,0.0586 0.07283,0.0167 0.112049,0.0202 0.158203,0.0254 0.09231,0.0105 0.192733,0.0165 0.318359,0.0234 0.251253,0.0138 0.595464,0.0253 1.021485,0.0351 0.852041,0.0197 2.022122,0.0332 3.318359,0.0332 z m 0,-1.60157 c -1.286295,0 -2.44812,-0.012 -3.28125,-0.0312 -0.248929,-0.006 -0.396419,-0.0127 -0.580078,-0.0195 v -15.47461 c 0.183659,-0.007 0.331149,-0.0138 0.580078,-0.0195 0.83313,-0.0193 1.994955,-0.0312 3.28125,-0.0312 1.286295,0 2.448119,0.012 3.28125,0.0312 0.248929,0.006 0.396419,0.0127 0.580078,0.0195 v 15.47461 c -0.183659,0.007 -0.331149,0.0138 -0.580078,0.0195 -0.833131,0.0193 -1.994955,0.0312 -3.28125,0.0312 z"
       id="path29088" />
    <path
       id="path29080"
       style="color:#000000;font-style:normal;font-variant:normal;font-weight:normal;font-stretch:normal;font-size:medium;line-height:normal;font-family:sans-serif;font-variant-ligatures:normal;font-variant-position:normal;font-variant-caps:normal;font-variant-numeric:normal;font-variant-alternates:normal;font-variant-east-asian:normal;font-feature-settings:normal;font-variation-settings:normal;text-indent:0;text-align:start;text-decoration:none;text-decoration-line:none;text-decoration-style:solid;text-decoration-color:#000000;letter-spacing:normal;word-spacing:normal;text-transform:none;writing-mode:lr-tb;direction:ltr;text-orientation:mixed;dominant-baseline:auto;baseline-shift:baseline;text-anchor:start;white-space:normal;shape-padding:0;shape-margin:0;inline-size:0;clip-rule:nonzero;display:inline;overflow:visible;visibility:visible;isolation:auto;mix-blend-mode:normal;color-interpolation:sRGB;color-interpolation-filters:linearRGB;solid-color:#000000;solid-opacity:1;vector-effect:none;fill:#bebebe;fill-opacity:1;fill-rule:nonzero;stroke:none;stroke-width:6.05197;stroke-linecap:butt;stroke-linejoin:round;stroke-miterlimit:20.1;stroke-dasharray:none;stroke-dashoffset:0;stroke-opacity:1;color-rendering:auto;image-rendering:auto;shape-rendering:auto;text-rendering:auto;enable-background:accumulate;stop-color:#000000"
       d="M 444.45898 151.92969 C 444.45725 151.92969 443.01545 152.29769 443.01367 152.29883 C 443.01193 152.29981 442.22439 152.91799 442.22266 152.91992 C 442.22088 152.92181 441.94889 153.25985 441.86914 153.39062 C 441.78901 153.5214 441.73336 153.62609 441.69141 153.7168 C 441.52435 154.08001 441.50245 154.23543 441.4707 154.37305 C 441.40759 154.6482 441.39465 154.79628 441.375 154.9707 C 441.33531 155.31955 441.31123 155.69904 441.28516 156.17383 C 441.233 157.12347 441.18157 158.425 441.14453 160.03516 C 441.07007 163.25546 441.02734 167.677 441.02734 172.57617 C 441.02734 177.47531 441.07007 181.89879 441.14453 185.11914 C 441.18233 186.72929 441.233 188.03086 441.28516 188.98047 C 441.31161 189.45529 441.33531 189.83471 441.375 190.18359 C 441.3939 190.35783 441.40872 190.5061 441.4707 190.78125 C 441.50094 190.91882 441.52435 191.07417 441.69141 191.4375 C 441.73336 191.52821 441.78901 191.63133 441.86914 191.76172 C 441.94927 191.89249 442.22114 192.23245 442.22266 192.23438 C 442.22439 192.23626 443.01193 192.85452 443.01367 192.85547 C 443.01545 192.85641 444.45725 193.22461 444.45898 193.22461 L 508.56445 193.22461 C 508.56623 193.22461 510.0158 192.8566 510.01758 192.85547 C 510.01932 192.85452 510.80686 192.23626 510.80859 192.23438 C 510.81037 192.23245 511.08236 191.89249 511.16211 191.76172 C 511.24224 191.63095 511.29789 191.52821 511.33984 191.4375 C 511.5069 191.07391 511.5288 190.9189 511.56055 190.78125 C 511.62366 190.5061 511.6366 190.35802 511.65625 190.18359 C 511.69594 189.83474 511.72002 189.45529 511.74609 188.98047 C 511.79825 188.03086 511.84187 186.72929 511.87891 185.11914 C 511.95336 181.89879 512.00391 177.47531 512.00391 172.57617 C 512.00391 167.677 511.95336 163.25546 511.87891 160.03516 C 511.84111 158.425 511.79787 157.12347 511.74609 156.17383 C 511.71964 155.69904 511.69556 155.31959 511.65625 154.9707 C 511.63735 154.79647 511.62253 154.6482 511.56055 154.37305 C 511.53031 154.23547 511.5069 154.08012 511.33984 153.7168 C 511.29827 153.62609 511.24224 153.52102 511.16211 153.39062 C 511.08198 153.25985 510.81011 152.92181 510.80859 152.91992 C 510.80686 152.91799 510.01932 152.29981 510.01758 152.29883 C 510.0158 152.29788 508.56623 151.92969 508.56445 151.92969 L 444.45898 151.92969 z "
       transform="matrix(0.26458333,0,0,0.26458333,20.39957,63.899563)" />
    <path
       id="path29074"
       style="color:#000000;font-style:normal;font-variant:normal;font-weight:normal;font-stretch:normal;font-size:medium;line-height:normal;font-family:sans-serif;font-variant-ligatures:normal;font-variant-position:normal;font-variant-caps:normal;font-variant-numeric:normal;font-variant-alternates:normal;font-variant-east-asian:normal;font-feature-settings:normal;font-variation-settings:normal;text-indent:0;text-align:start;text-decoration:none;text-decoration-line:none;text-decoration-style:solid;text-decoration-color:#000000;letter-spacing:normal;word-spacing:normal;text-transform:none;writing-mode:lr-tb;direction:ltr;text-orientation:mixed;dominant-baseline:auto;baseline-shift:baseline;text-anchor:start;white-space:normal;shape-padding:0;shape-margin:0;inline-size:0;clip-rule:nonzero;display:inline;overflow:visible;visibility:visible;isolation:auto;mix-blend-mode:normal;color-interpolation:sRGB;color-interpolation-filters:linearRGB;solid-color:#000000;solid-opacity:1;vector-effect:none;fill:#bebebe;fill-opacity:1;fill-rule:nonzero;stroke:none;stroke-width:6.05197;stroke-linecap:butt;stroke-linejoin:round;stroke-miterlimit:20.1;stroke-dasharray:none;stroke-dashoffset:0;stroke-opacity:1;color-rendering:auto;image-rendering:auto;shape-rendering:auto;text-rendering:auto;enable-background:accumulate;stop-color:#000000"
       d="M 444.45898 235.35156 C 444.45725 235.35156 443.01545 235.72152 443.01367 235.72266 C 443.01193 235.7236 442.22439 236.33991 442.22266 236.3418 C 442.22088 236.34372 441.94889 236.68368 441.86914 236.81445 C 441.78901 236.94522 441.73336 237.04796 441.69141 237.13867 C 441.52435 237.50226 441.50245 237.65922 441.4707 237.79688 C 441.40759 238.07202 441.39465 238.22011 441.375 238.39453 C 441.33531 238.74338 441.31123 239.12283 441.28516 239.59766 C 441.233 240.54726 441.18157 241.84688 441.14453 243.45703 C 441.07007 246.67734 441.02734 251.10086 441.02734 256 C 441.02734 260.89917 441.07007 265.32071 441.14453 268.54102 C 441.18233 270.15117 441.233 271.4527 441.28516 272.40234 C 441.31161 272.87713 441.33531 273.25658 441.375 273.60547 C 441.3939 273.7797 441.40872 273.92798 441.4707 274.20312 C 441.50094 274.3407 441.52435 274.498 441.69141 274.86133 C 441.73336 274.95204 441.78901 275.05515 441.86914 275.18555 C 441.94927 275.31632 442.22114 275.65631 442.22266 275.6582 C 442.22439 275.66013 443.01193 276.27636 443.01367 276.27734 C 443.01545 276.27829 444.45725 276.64648 444.45898 276.64648 L 508.56445 276.64648 C 508.56623 276.64648 510.0158 276.2781 510.01758 276.27734 C 510.01932 276.27636 510.80686 275.66013 510.80859 275.6582 C 510.81037 275.65631 511.08236 275.31632 511.16211 275.18555 C 511.24224 275.05478 511.29789 274.95204 511.33984 274.86133 C 511.5069 274.49812 511.5288 274.34074 511.56055 274.20312 C 511.62366 273.92798 511.6366 273.77989 511.65625 273.60547 C 511.69594 273.25662 511.72002 272.87713 511.74609 272.40234 C 511.79825 271.4527 511.84187 270.15117 511.87891 268.54102 C 511.95336 265.32071 512.00391 260.89917 512.00391 256 C 512.00391 251.10086 511.95336 246.67734 511.87891 243.45703 C 511.84111 241.84688 511.79787 240.54726 511.74609 239.59766 C 511.71964 239.12283 511.69556 238.74342 511.65625 238.39453 C 511.63735 238.2203 511.62253 238.07202 511.56055 237.79688 C 511.53031 237.6593 511.5069 237.502 511.33984 237.13867 C 511.29827 237.04796 511.24224 236.94485 511.16211 236.81445 C 511.08198 236.68368 510.81011 236.34372 510.80859 236.3418 C 510.80686 236.33991 510.01932 235.7236 510.01758 235.72266 C 510.0158 235.72171 508.56623 235.35156 508.56445 235.35156 L 444.45898 235.35156 z "
       transform="matrix(0.26458333,0,0,0.26458333,20.39957,63.899563)" />
    <path
       id="path29068"
       style="color:#000000;font-style:normal;font-variant:normal;font-weight:normal;font-stretch:normal;font-size:medium;line-height:normal;font-family:sans-serif;font-variant-ligatures:normal;font-variant-position:normal;font-variant-caps:normal;font-variant-numeric:normal;font-variant-alternates:normal;font-variant-east-asian:normal;font-feature-settings:normal;font-variation-settings:normal;text-indent:0;text-align:start;text-decoration:none;text-decoration-line:none;text-decoration-style:solid;text-decoration-color:#000000;letter-spacing:normal;word-spacing:normal;text-transform:none;writing-mode:lr-tb;direction:ltr;text-orientation:mixed;dominant-baseline:auto;baseline-shift:baseline;text-anchor:start;white-space:normal;shape-padding:0;shape-margin:0;inline-size:0;clip-rule:nonzero;display:inline;overflow:visible;visibility:visible;isolation:auto;mix-blend-mode:normal;color-interpolation:sRGB;color-interpolation-filters:linearRGB;solid-color:#000000;solid-opacity:1;vector-effect:none;fill:#bebebe;fill-opacity:1;fill-rule:nonzero;stroke:none;stroke-width:6.05197;stroke-linecap:butt;stroke-linejoin:round;stroke-miterlimit:20.1;stroke-dasharray:none;stroke-dashoffset:0;stroke-opacity:1;color-rendering:auto;image-rendering:auto;shape-rendering:auto;text-rendering:auto;enable-background:accumulate;stop-color:#000000"
       d="M 444.45898 318.77539 C 444.45725 318.77539 443.01545 319.1434 443.01367 319.14453 C 443.01193 319.14551 442.22439 319.76174 442.22266 319.76367 C 442.22088 319.76556 441.94889 320.10556 441.86914 320.23633 C 441.78901 320.3671 441.73336 320.47179 441.69141 320.5625 C 441.52435 320.92609 441.50245 321.08114 441.4707 321.21875 C 441.40759 321.4939 441.39465 321.64194 441.375 321.81641 C 441.33531 322.16526 441.31123 322.54475 441.28516 323.01953 C 441.233 323.96918 441.18157 325.27071 441.14453 326.88086 C 441.07007 330.10117 441.02734 334.5227 441.02734 339.42188 C 441.02734 344.32105 441.07007 348.74454 441.14453 351.96484 C 441.18233 353.575 441.233 354.87461 441.28516 355.82422 C 441.31161 356.29904 441.33531 356.67846 441.375 357.02734 C 441.3939 357.20196 441.40872 357.3518 441.4707 357.62695 C 441.50094 357.76453 441.52435 357.91988 441.69141 358.2832 C 441.73336 358.37391 441.78901 358.47703 441.86914 358.60742 C 441.94927 358.73819 442.22114 359.07819 442.22266 359.08008 C 442.22439 359.08197 443.01193 359.70023 443.01367 359.70117 C 443.01545 359.70215 444.45725 360.07031 444.45898 360.07031 L 508.56445 360.07031 C 508.56623 360.07031 510.0158 359.70231 510.01758 359.70117 C 510.01932 359.70023 510.80686 359.08197 510.80859 359.08008 C 510.81037 359.07819 511.08236 358.73819 511.16211 358.60742 C 511.24224 358.47665 511.29789 358.37391 511.33984 358.2832 C 511.5069 357.91999 511.5288 357.7646 511.56055 357.62695 C 511.62366 357.3518 511.6366 357.20181 511.65625 357.02734 C 511.69594 356.67849 511.72002 356.29904 511.74609 355.82422 C 511.79825 354.87461 511.84187 353.575 511.87891 351.96484 C 511.95336 348.74454 512.00391 344.32105 512.00391 339.42188 C 512.00391 334.5227 511.95336 330.10117 511.87891 326.88086 C 511.84111 325.27071 511.79787 323.96918 511.74609 323.01953 C 511.71964 322.54475 511.69556 322.16526 511.65625 321.81641 C 511.63735 321.64179 511.62253 321.49394 511.56055 321.21875 C 511.53031 321.08118 511.5069 320.92583 511.33984 320.5625 C 511.29827 320.47179 511.24224 320.36672 511.16211 320.23633 C 511.08198 320.10556 510.81011 319.76556 510.80859 319.76367 C 510.80686 319.76174 510.01932 319.14551 510.01758 319.14453 C 510.0158 319.14359 508.56623 318.77539 508.56445 318.77539 L 444.45898 318.77539 z "
       transform="matrix(0.26458333,0,0,0.26458333,20.39957,63.899563)" />
    <path
       id="path29062"
       style="color:#000000;font-style:normal;font-variant:normal;font-weight:normal;font-stretch:normal;font-size:medium;line-height:normal;font-family:sans-serif;font-variant-ligatures:normal;font-variant-position:normal;font-variant-caps:normal;font-variant-numeric:normal;font-variant-alternates:normal;font-variant-east-asian:normal;font-feature-settings:normal;font-variation-settings:normal;text-indent:0;text-align:start;text-decoration:none;text-decoration-line:none;text-decoration-style:solid;text-decoration-color:#000000;letter-spacing:normal;word-spacing:normal;text-transform:none;writing-mode:lr-tb;direction:ltr;text-orientation:mixed;dominant-baseline:auto;baseline-shift:baseline;text-anchor:start;white-space:normal;shape-padding:0;shape-margin:0;inline-size:0;clip-rule:nonzero;display:inline;overflow:visible;visibility:visible;isolation:auto;mix-blend-mode:normal;color-interpolation:sRGB;color-interpolation-filters:linearRGB;solid-color:#000000;solid-opacity:1;vector-effect:none;fill:#bebebe;fill-opacity:1;fill-rule:nonzero;stroke:none;stroke-width:6.05197;stroke-linecap:butt;stroke-linejoin:round;stroke-miterlimit:20.1;stroke-dasharray:none;stroke-dashoffset:0;stroke-opacity:1;color-rendering:auto;image-rendering:auto;shape-rendering:auto;text-rendering:auto;enable-background:accumulate;stop-color:#000000"
       d="M 3.4355469 318.77539 C 3.4337818 318.77539 1.9841831 319.1434 1.9824219 319.14453 C 1.9806644 319.14551 1.2009725 319.76174 1.1992188 319.76367 C 1.197465 319.76556 0.91797881 320.10556 0.83789062 320.23633 C 0.75780244 320.3671 0.70188223 320.47179 0.66015625 320.5625 C 0.49321452 320.92609 0.47687156 321.08114 0.4453125 321.21875 C 0.38223219 321.4939 0.3616016 321.64194 0.34179688 321.81641 C 0.30214963 322.16526 0.27998499 322.54475 0.25390625 323.01953 C 0.20178656 323.96918 0.15835989 325.27071 0.12109375 326.88086 C 0.046599262 330.10117 0.00390625 334.5227 0.00390625 339.42188 C 0.00390625 344.32105 0.046599262 348.74454 0.12109375 351.96484 C 0.15851107 353.575 0.20178656 354.87461 0.25390625 355.82422 C 0.27998499 356.29904 0.30214963 356.67846 0.34179688 357.02734 C 0.36145042 357.20196 0.38223219 357.3518 0.4453125 357.62695 C 0.47668258 357.76453 0.49321452 357.91988 0.66015625 358.2832 C 0.70188223 358.37391 0.75784023 358.47703 0.83789062 358.60742 C 0.91797881 358.73819 1.1974802 359.07819 1.1992188 359.08008 C 1.2009725 359.08197 1.9787113 359.70023 1.9804688 359.70117 C 1.98223 359.70215 3.4337818 360.07031 3.4355469 360.07031 L 67.539062 360.07031 C 67.540828 360.07031 68.984567 359.70231 68.986328 359.70117 C 68.988086 359.70023 69.77559 359.08197 69.777344 359.08008 C 69.779097 359.07819 70.050771 358.73819 70.130859 358.60742 C 70.210948 358.47665 70.266868 358.37391 70.308594 358.2832 C 70.475535 357.91999 70.497776 357.7646 70.529297 357.62695 C 70.592377 357.3518 70.605157 357.20181 70.625 357.02734 C 70.664647 356.67849 70.694662 356.29904 70.720703 355.82422 C 70.772823 354.87461 70.816249 353.575 70.853516 351.96484 C 70.92801 348.74454 70.972656 344.32105 70.972656 339.42188 C 70.972656 334.5227 70.92801 330.10117 70.853516 326.88086 C 70.816098 325.27071 70.772823 323.96918 70.720703 323.01953 C 70.694624 322.54475 70.664647 322.16526 70.625 321.81641 C 70.605346 321.64179 70.592377 321.49394 70.529297 321.21875 C 70.497927 321.08118 70.475535 320.92583 70.308594 320.5625 C 70.266868 320.47179 70.21091 320.36672 70.130859 320.23633 C 70.050771 320.10556 69.779082 319.76556 69.777344 319.76367 C 69.77559 319.76174 68.988086 319.14551 68.986328 319.14453 C 68.984567 319.14359 67.540828 318.77539 67.539062 318.77539 L 3.4355469 318.77539 z "
       transform="matrix(0.26458333,0,0,0.26458333,20.39957,63.899563)" />
    <path
       id="path29056"
       style="color:#000000;font-style:normal;font-variant:normal;font-weight:normal;font-stretch:normal;font-size:medium;line-height:normal;font-family:sans-serif;font-variant-ligatures:normal;font-variant-position:normal;font-variant-caps:normal;font-variant-numeric:normal;font-variant-alternates:normal;font-variant-east-asian:normal;font-feature-settings:normal;font-variation-settings:normal;text-indent:0;text-align:start;text-decoration:none;text-decoration-line:none;text-decoration-style:solid;text-decoration-color:#000000;letter-spacing:normal;word-spacing:normal;text-transform:none;writing-mode:lr-tb;direction:ltr;text-orientation:mixed;dominant-baseline:auto;baseline-shift:baseline;text-anchor:start;white-space:normal;shape-padding:0;shape-margin:0;inline-size:0;clip-rule:nonzero;display:inline;overflow:visible;visibility:visible;isolation:auto;mix-blend-mode:normal;color-interpolation:sRGB;color-interpolation-filters:linearRGB;solid-color:#000000;solid-opacity:1;vector-effect:none;fill:#bebebe;fill-opacity:1;fill-rule:nonzero;stroke:none;stroke-width:6.05197;stroke-linecap:butt;stroke-linejoin:round;stroke-miterlimit:20.1;stroke-dasharray:none;stroke-dashoffset:0;stroke-opacity:1;color-rendering:auto;image-rendering:auto;shape-rendering:auto;text-rendering:auto;enable-background:accumulate;stop-color:#000000"
       d="M 3.4355469 235.35156 C 3.4337818 235.35156 1.9841831 235.72152 1.9824219 235.72266 C 1.9806644 235.7236 1.2009725 236.33991 1.1992188 236.3418 C 1.197465 236.34372 0.91797881 236.68368 0.83789062 236.81445 C 0.75780244 236.94522 0.70188223 237.04796 0.66015625 237.13867 C 0.49321452 237.50226 0.47687156 237.65922 0.4453125 237.79688 C 0.38223219 238.07202 0.3616016 238.22011 0.34179688 238.39453 C 0.30214963 238.74338 0.27998499 239.12283 0.25390625 239.59766 C 0.20178656 240.54726 0.15835989 241.84688 0.12109375 243.45703 C 0.046599262 246.67734 0.00390625 251.10086 0.00390625 256 C 0.00390625 260.89917 0.046599262 265.32071 0.12109375 268.54102 C 0.15851107 270.15117 0.20178656 271.4527 0.25390625 272.40234 C 0.27998499 272.87713 0.30214963 273.25658 0.34179688 273.60547 C 0.36145042 273.7797 0.38223219 273.92798 0.4453125 274.20312 C 0.47668258 274.3407 0.49321452 274.498 0.66015625 274.86133 C 0.70188223 274.95204 0.75784023 275.05515 0.83789062 275.18555 C 0.91797881 275.31632 1.1974802 275.65631 1.1992188 275.6582 C 1.2009725 275.66013 1.9787113 276.27636 1.9804688 276.27734 C 1.98223 276.27829 3.4337818 276.64648 3.4355469 276.64648 L 67.539062 276.64648 C 67.540828 276.64648 68.984567 276.2781 68.986328 276.27734 C 68.988086 276.27636 69.77559 275.66013 69.777344 275.6582 C 69.779097 275.65631 70.050771 275.31632 70.130859 275.18555 C 70.210948 275.05478 70.266868 274.95204 70.308594 274.86133 C 70.475535 274.49812 70.497776 274.34074 70.529297 274.20312 C 70.592377 273.92798 70.605157 273.77989 70.625 273.60547 C 70.664647 273.25662 70.694662 272.87713 70.720703 272.40234 C 70.772823 271.4527 70.816249 270.15117 70.853516 268.54102 C 70.92801 265.32071 70.972656 260.89917 70.972656 256 C 70.972656 251.10086 70.92801 246.67734 70.853516 243.45703 C 70.816098 241.84688 70.772823 240.54726 70.720703 239.59766 C 70.694624 239.12283 70.664647 238.74342 70.625 238.39453 C 70.605346 238.2203 70.592377 238.07202 70.529297 237.79688 C 70.497927 237.6593 70.475535 237.502 70.308594 237.13867 C 70.266868 237.04796 70.21091 236.94485 70.130859 236.81445 C 70.050771 236.68368 69.779082 236.34372 69.777344 236.3418 C 69.77559 236.33991 68.988086 235.7236 68.986328 235.72266 C 68.984567 235.72171 67.540828 235.35156 67.539062 235.35156 L 3.4355469 235.35156 z "
       transform="matrix(0.26458333,0,0,0.26458333,20.39957,63.899563)" />
    <path
       id="path29050"
       style="color:#000000;font-style:normal;font-variant:normal;font-weight:normal;font-stretch:normal;font-size:medium;line-height:normal;font-family:sans-serif;font-variant-ligatures:normal;font-variant-position:normal;font-variant-caps:normal;font-variant-numeric:normal;font-variant-alternates:normal;font-variant-east-asian:normal;font-feature-settings:normal;font-variation-settings:normal;text-indent:0;text-align:start;text-decoration:none;text-decoration-line:none;text-decoration-style:solid;text-decoration-color:#000000;letter-spacing:normal;word-spacing:normal;text-transform:none;writing-mode:lr-tb;direction:ltr;text-orientation:mixed;dominant-baseline:auto;baseline-shift:baseline;text-anchor:start;white-space:normal;shape-padding:0;shape-margin:0;inline-size:0;clip-rule:nonzero;display:inline;overflow:visible;visibility:visible;isolation:auto;mix-blend-mode:normal;color-interpolation:sRGB;color-interpolation-filters:linearRGB;solid-color:#000000;solid-opacity:1;vector-effect:none;fill:#bebebe;fill-opacity:1;fill-rule:nonzero;stroke:none;stroke-width:6.05197;stroke-linecap:butt;stroke-linejoin:round;stroke-miterlimit:20.1;stroke-dasharray:none;stroke-dashoffset:0;stroke-opacity:1;color-rendering:auto;image-rendering:auto;shape-rendering:auto;text-rendering:auto;enable-background:accumulate;stop-color:#000000"
       d="M 3.4355469 151.92969 C 3.4337818 151.92969 1.9841831 152.29769 1.9824219 152.29883 C 1.9806644 152.29981 1.2009725 152.91799 1.1992188 152.91992 C 1.197465 152.92181 0.91797881 153.25985 0.83789062 153.39062 C 0.75780244 153.5214 0.70188223 153.62609 0.66015625 153.7168 C 0.49321452 154.08001 0.47687156 154.23543 0.4453125 154.37305 C 0.38223219 154.6482 0.3616016 154.79628 0.34179688 154.9707 C 0.30214963 155.31955 0.27998499 155.69904 0.25390625 156.17383 C 0.20178656 157.12347 0.15835989 158.425 0.12109375 160.03516 C 0.046599262 163.25546 0.00390625 167.677 0.00390625 172.57617 C 0.00390625 177.47531 0.046599262 181.89879 0.12109375 185.11914 C 0.15851107 186.72929 0.20178656 188.03086 0.25390625 188.98047 C 0.27998499 189.45529 0.30214963 189.83471 0.34179688 190.18359 C 0.36145042 190.35783 0.38223219 190.5061 0.4453125 190.78125 C 0.47668258 190.91882 0.49321452 191.07417 0.66015625 191.4375 C 0.70188223 191.52821 0.75784023 191.63133 0.83789062 191.76172 C 0.91797881 191.89249 1.1974802 192.23245 1.1992188 192.23438 C 1.2009725 192.23626 1.9787113 192.85452 1.9804688 192.85547 C 1.98223 192.85641 3.4337818 193.22461 3.4355469 193.22461 L 67.539062 193.22461 C 67.540828 193.22461 68.984567 192.8566 68.986328 192.85547 C 68.988086 192.85452 69.77559 192.23626 69.777344 192.23438 C 69.779097 192.23245 70.050771 191.89249 70.130859 191.76172 C 70.210948 191.63095 70.266868 191.52821 70.308594 191.4375 C 70.475535 191.07391 70.497776 190.9189 70.529297 190.78125 C 70.592377 190.5061 70.605157 190.35802 70.625 190.18359 C 70.664647 189.83474 70.694662 189.45529 70.720703 188.98047 C 70.772823 188.03086 70.816249 186.72929 70.853516 185.11914 C 70.92801 181.89879 70.972656 177.47531 70.972656 172.57617 C 70.972656 167.677 70.92801 163.25546 70.853516 160.03516 C 70.816098 158.425 70.772823 157.12347 70.720703 156.17383 C 70.694624 155.69904 70.664647 155.31959 70.625 154.9707 C 70.605346 154.79647 70.592377 154.6482 70.529297 154.37305 C 70.497927 154.23547 70.475535 154.08012 70.308594 153.7168 C 70.266868 153.62609 70.21091 153.52102 70.130859 153.39062 C 70.050771 153.25985 69.779082 152.92181 69.777344 152.91992 C 69.77559 152.91799 68.988086 152.29981 68.986328 152.29883 C 68.984567 152.29788 67.540828 151.92969 67.539062 151.92969 L 3.4355469 151.92969 z "
       transform="matrix(0.26458333,0,0,0.26458333,20.39957,63.899563)" />
    <path
       id="path29044"
       style="color:#000000;font-style:normal;font-variant:normal;font-weight:normal;font-stretch:normal;font-size:medium;line-height:normal;font-family:sans-serif;font-variant-ligatures:normal;font-variant-position:normal;font-variant-caps:normal;font-variant-numeric:normal;font-variant-alternates:normal;font-variant-east-asian:normal;font-feature-settings:normal;font-variation-settings:normal;text-indent:0;text-align:start;text-decoration:none;text-decoration-line:none;text-decoration-style:solid;text-decoration-color:#000000;letter-spacing:normal;word-spacing:normal;text-transform:none;writing-mode:lr-tb;direction:ltr;text-orientation:mixed;dominant-baseline:auto;baseline-shift:baseline;text-anchor:start;white-space:normal;shape-padding:0;shape-margin:0;inline-size:0;clip-rule:nonzero;display:inline;overflow:visible;visibility:visible;isolation:auto;mix-blend-mode:normal;color-interpolation:sRGB;color-interpolation-filters:linearRGB;solid-color:#000000;solid-opacity:1;vector-effect:none;fill:#bebebe;fill-opacity:1;fill-rule:nonzero;stroke:none;stroke-width:8.06423;stroke-linecap:butt;stroke-linejoin:round;stroke-miterlimit:20.1;stroke-dasharray:none;stroke-dashoffset:0;stroke-opacity:1;color-rendering:auto;image-rendering:auto;shape-rendering:auto;text-rendering:auto;enable-background:accumulate;stop-color:#000000"
       d="M 178.68945 134.11719 C 168.38151 134.11719 159.08039 134.20194 152.32812 134.33203 C 148.95199 134.39708 146.2168 134.4718 144.27539 134.56055 C 143.30468 134.60492 142.54129 134.64826 141.91992 134.70703 C 141.60924 134.73651 141.35322 134.76323 140.98242 134.83398 C 140.79704 134.86951 140.60775 134.88978 140.15625 135.0625 C 139.9305 135.14886 139.63083 135.24388 139.10742 135.64453 C 138.97657 135.74469 138.83798 135.86771 138.67969 136.0293 C 138.5214 136.19087 138.17874 136.64689 138.17773 136.64844 C 138.17572 136.6515 137.51953 138.86022 137.51953 138.86328 L 137.51953 239.98828 C 137.51953 239.99138 138.17572 242.20006 138.17773 242.20312 C 138.17874 242.20467 138.52139 242.66073 138.67969 242.82227 C 138.83797 242.98403 138.97657 243.11461 139.10742 243.21484 C 139.63083 243.61551 139.9305 243.71051 140.15625 243.79688 C 140.60775 243.9696 140.79702 243.99024 140.98242 244.02539 C 141.35323 244.09607 141.60924 244.12286 141.91992 244.15234 C 142.54129 244.21093 143.30468 244.25423 144.27539 244.29883 C 146.2168 244.38765 148.95199 244.46234 152.32812 244.52734 C 159.08039 244.65736 168.38151 244.73437 178.68945 244.73438 L 200.16992 244.73438 C 210.47787 244.73438 219.77898 244.65736 226.53125 244.52734 C 229.90738 244.46234 232.64257 244.38727 234.58398 244.29883 C 235.55469 244.25461 236.31027 244.2113 236.93164 244.15234 C 237.24232 244.12211 237.49834 244.09607 237.86914 244.02539 C 238.05453 243.99137 238.24576 243.9696 238.69727 243.79688 C 238.92302 243.71032 239.22074 243.61547 239.74414 243.21484 C 239.87499 243.11469 240.02138 242.98373 240.17969 242.82227 C 240.33797 242.66088 240.68063 242.20467 240.68164 242.20312 C 240.68366 242.20006 241.33984 239.99138 241.33984 239.98828 L 241.33984 138.86328 C 241.33984 138.86022 240.68366 136.6515 240.68164 136.64844 C 240.68063 136.64689 240.33798 136.19087 240.17969 136.0293 C 240.0214 135.86772 239.87501 135.7447 239.74414 135.64453 C 239.22074 135.24388 238.92302 135.14885 238.69727 135.0625 C 238.24576 134.88981 238.05454 134.86936 237.86914 134.83398 C 237.49833 134.76323 237.24232 134.73644 236.93164 134.70703 C 236.31027 134.64822 235.55469 134.60488 234.58398 134.56055 C 232.64257 134.47184 229.90738 134.39708 226.53125 134.33203 C 219.77898 134.20194 210.47787 134.11719 200.16992 134.11719 L 178.68945 134.11719 z "
       transform="matrix(0.26458333,0,0,0.26458333,20.39957,63.899563)" />
    <path
       id="path29038"
       style="color:#000000;font-style:normal;font-variant:normal;font-weight:normal;font-stretch:normal;font-size:medium;line-height:normal;font-family:sans-serif;font-variant-ligatures:normal;font-variant-position:normal;font-variant-caps:normal;font-variant-numeric:normal;font-variant-alternates:normal;font-variant-east-asian:normal;font-feature-settings:normal;font-variation-settings:normal;text-indent:0;text-align:start;text-decoration:none;text-decoration-line:none;text-decoration-style:solid;text-decoration-color:#000000;letter-spacing:normal;word-spacing:normal;text-transform:none;writing-mode:lr-tb;direction:ltr;text-orientation:mixed;dominant-baseline:auto;baseline-shift:baseline;text-anchor:start;white-space:normal;shape-padding:0;shape-margin:0;inline-size:0;clip-rule:nonzero;display:inline;overflow:visible;visibility:visible;isolation:auto;mix-blend-mode:normal;color-interpolation:sRGB;color-interpolation-filters:linearRGB;solid-color:#000000;solid-opacity:1;vector-effect:none;fill:#bebebe;fill-opacity:1;fill-rule:nonzero;stroke:none;stroke-width:8.06423;stroke-linecap:butt;stroke-linejoin:round;stroke-miterlimit:20.1;stroke-dasharray:none;stroke-dashoffset:0;stroke-opacity:1;color-rendering:auto;image-rendering:auto;shape-rendering:auto;text-rendering:auto;enable-background:accumulate;stop-color:#000000"
       d="M 311.82812 134.11719 C 301.52018 134.11719 292.22102 134.20194 285.46875 134.33203 C 282.09262 134.39708 279.36329 134.4718 277.42188 134.56055 C 276.45117 134.60492 275.68778 134.64826 275.06641 134.70703 C 274.75573 134.73651 274.4997 134.76323 274.12891 134.83398 C 273.94352 134.86951 273.75424 134.88978 273.30273 135.0625 C 273.07698 135.14886 272.77731 135.24388 272.25391 135.64453 C 272.12306 135.74469 271.97666 135.86771 271.81836 136.0293 C 271.66007 136.19087 271.31742 136.64689 271.31641 136.64844 C 271.31439 136.6515 270.66016 138.86022 270.66016 138.86328 L 270.66016 239.98828 C 270.66016 239.99138 271.31439 242.20006 271.31641 242.20312 C 271.31742 242.20467 271.66007 242.66073 271.81836 242.82227 C 271.97665 242.98403 272.12304 243.11461 272.25391 243.21484 C 272.77731 243.61551 273.07698 243.71051 273.30273 243.79688 C 273.75424 243.9696 273.94351 243.99024 274.12891 244.02539 C 274.49972 244.09607 274.75573 244.12286 275.06641 244.15234 C 275.68778 244.21093 276.45117 244.25423 277.42188 244.29883 C 279.36329 244.38765 282.09262 244.46234 285.46875 244.52734 C 292.22102 244.65736 301.52018 244.73437 311.82812 244.73438 L 333.31055 244.73438 C 343.61849 244.73438 352.9196 244.65736 359.67188 244.52734 C 363.04801 244.46234 365.78318 244.38727 367.72461 244.29883 C 368.69531 244.25461 369.45869 244.2113 370.08008 244.15234 C 370.39076 244.12211 370.64681 244.09607 371.01758 244.02539 C 371.20315 243.99137 371.39229 243.9696 371.84375 243.79688 C 372.06939 243.71032 372.36915 243.61547 372.89258 243.21484 C 373.02335 243.11469 373.16203 242.98373 373.32031 242.82227 C 373.47867 242.66088 373.82125 242.20467 373.82227 242.20312 C 373.82427 242.20006 374.47852 239.99138 374.47852 239.98828 L 374.47852 138.86328 C 374.47852 138.86022 373.82427 136.6515 373.82227 136.64844 C 373.82125 136.64689 373.47871 136.19087 373.32031 136.0293 C 373.16195 135.86772 373.02327 135.7447 372.89258 135.64453 C 372.36915 135.24388 372.0695 135.14885 371.84375 135.0625 C 371.39225 134.88981 371.203 134.86936 371.01758 134.83398 C 370.64681 134.76323 370.39076 134.73644 370.08008 134.70703 C 369.45869 134.64822 368.69531 134.60488 367.72461 134.56055 C 365.78318 134.47184 363.04801 134.39708 359.67188 134.33203 C 352.9196 134.20194 343.61849 134.11719 333.31055 134.11719 L 311.82812 134.11719 z "
       transform="matrix(0.26458333,0,0,0.26458333,20.39957,63.899563)" />
    <path
       id="path29032"
       style="color:#000000;font-style:normal;font-variant:normal;font-weight:normal;font-stretch:normal;font-size:medium;line-height:normal;font-family:sans-serif;font-variant-ligatures:normal;font-variant-position:normal;font-variant-caps:normal;font-variant-numeric:normal;font-variant-alternates:normal;font-variant-east-asian:normal;font-feature-settings:normal;font-variation-settings:normal;text-indent:0;text-align:start;text-decoration:none;text-decoration-line:none;text-decoration-style:solid;text-decoration-color:#000000;letter-spacing:normal;word-spacing:normal;text-transform:none;writing-mode:lr-tb;direction:ltr;text-orientation:mixed;dominant-baseline:auto;baseline-shift:baseline;text-anchor:start;white-space:normal;shape-padding:0;shape-margin:0;inline-size:0;clip-rule:nonzero;display:inline;overflow:visible;visibility:visible;isolation:auto;mix-blend-mode:normal;color-interpolation:sRGB;color-interpolation-filters:linearRGB;solid-color:#000000;solid-opacity:1;vector-effect:none;fill:#bebebe;fill-opacity:1;fill-rule:nonzero;stroke:none;stroke-width:8.06423;stroke-linecap:butt;stroke-linejoin:round;stroke-miterlimit:20.1;stroke-dasharray:none;stroke-dashoffset:0;stroke-opacity:1;color-rendering:auto;image-rendering:auto;shape-rendering:auto;text-rendering:auto;enable-background:accumulate;stop-color:#000000"
       d="M 178.68945 267.26367 C 168.38151 267.26367 159.08039 267.34069 152.32812 267.4707 C 148.95199 267.53571 146.2168 267.61235 144.27539 267.70117 C 143.30468 267.74539 142.54129 267.7887 141.91992 267.84766 C 141.60924 267.87789 141.35322 267.90198 140.98242 267.97266 C 140.79704 268.00667 140.60775 268.03626 140.15625 268.20898 C 139.9305 268.29554 139.63083 268.39234 139.10742 268.79297 C 138.97657 268.89313 138.83798 269.01417 138.67969 269.17578 C 138.5214 269.33755 138.17874 269.79533 138.17773 269.79688 C 138.17572 269.79997 137.51953 272.00862 137.51953 272.01172 L 137.51953 373.13477 C 137.51953 373.13786 138.17572 375.34651 138.17773 375.34961 C 138.17874 375.35116 138.52139 375.80913 138.67969 375.9707 C 138.83797 376.13247 138.97657 376.25351 139.10742 376.35352 C 139.63083 376.75418 139.9305 376.85114 140.15625 376.9375 C 140.60775 377.11022 140.79702 377.13087 140.98242 377.16602 C 141.35323 377.23669 141.60924 377.26154 141.91992 377.29102 C 142.54129 377.34998 143.30468 377.39485 144.27539 377.43945 C 146.2168 377.52827 148.95199 377.61077 152.32812 377.67578 C 159.08039 377.8058 168.38151 377.88281 178.68945 377.88281 L 200.16992 377.88281 C 210.47787 377.88281 219.77898 377.8058 226.53125 377.67578 C 229.90738 377.61077 232.64257 377.52827 234.58398 377.43945 C 235.55469 377.39523 236.31027 377.34998 236.93164 377.29102 C 237.24232 377.26078 237.49834 377.23669 237.86914 377.16602 C 238.05453 377.132 238.24576 377.10985 238.69727 376.9375 C 238.92302 376.85095 239.22074 376.75415 239.74414 376.35352 C 239.87499 376.25336 240.02138 376.13232 240.17969 375.9707 C 240.33797 375.80894 240.68063 375.35116 240.68164 375.34961 C 240.68366 375.34651 241.33984 373.13786 241.33984 373.13477 L 241.33984 272.01172 C 241.33984 272.00862 240.68366 269.79997 240.68164 269.79688 C 240.68063 269.79533 240.33798 269.33736 240.17969 269.17578 C 240.0214 269.0144 239.87501 268.89298 239.74414 268.79297 C 239.22074 268.3923 238.92302 268.29535 238.69727 268.20898 C 238.24576 268.03626 238.05454 268.00818 237.86914 267.97266 C 237.49833 267.90198 237.24232 267.87714 236.93164 267.84766 C 236.31027 267.7887 235.55469 267.74382 234.58398 267.69922 C 232.64257 267.6104 229.90738 267.53609 226.53125 267.4707 C 219.77898 267.34069 210.47787 267.26367 200.16992 267.26367 L 178.68945 267.26367 z "
       transform="matrix(0.26458333,0,0,0.26458333,20.39957,63.899563)" />
    <path
       id="path29026"
       style="color:#000000;font-style:normal;font-variant:normal;font-weight:normal;font-stretch:normal;font-size:medium;line-height:normal;font-family:sans-serif;font-variant-ligatures:normal;font-variant-position:normal;font-variant-caps:normal;font-variant-numeric:normal;font-variant-alternates:normal;font-variant-east-asian:normal;font-feature-settings:normal;font-variation-settings:normal;text-indent:0;text-align:start;text-decoration:none;text-decoration-line:none;text-decoration-style:solid;text-decoration-color:#000000;letter-spacing:normal;word-spacing:normal;text-transform:none;writing-mode:lr-tb;direction:ltr;text-orientation:mixed;dominant-baseline:auto;baseline-shift:baseline;text-anchor:start;white-space:normal;shape-padding:0;shape-margin:0;inline-size:0;clip-rule:nonzero;display:inline;overflow:visible;visibility:visible;isolation:auto;mix-blend-mode:normal;color-interpolation:sRGB;color-interpolation-filters:linearRGB;solid-color:#000000;solid-opacity:1;vector-effect:none;fill:#bebebe;fill-opacity:1;fill-rule:nonzero;stroke:none;stroke-width:8.06423;stroke-linecap:butt;stroke-linejoin:round;stroke-miterlimit:20.1;stroke-dasharray:none;stroke-dashoffset:0;stroke-opacity:1;color-rendering:auto;image-rendering:auto;shape-rendering:auto;text-rendering:auto;enable-background:accumulate;stop-color:#000000"
       d="M 311.82812 267.26367 C 301.52018 267.26367 292.22102 267.34069 285.46875 267.4707 C 282.09262 267.53571 279.36329 267.61235 277.42188 267.70117 C 276.45117 267.74539 275.68778 267.7887 275.06641 267.84766 C 274.75573 267.87789 274.4997 267.90198 274.12891 267.97266 C 273.94352 268.00667 273.75424 268.03626 273.30273 268.20898 C 273.07698 268.29554 272.77731 268.39234 272.25391 268.79297 C 272.12306 268.89313 271.97666 269.01417 271.81836 269.17578 C 271.66007 269.33755 271.31742 269.79533 271.31641 269.79688 C 271.31439 269.79997 270.66016 272.00862 270.66016 272.01172 L 270.66016 373.13477 C 270.66016 373.13786 271.31439 375.34651 271.31641 375.34961 C 271.31742 375.35116 271.66007 375.80913 271.81836 375.9707 C 271.97665 376.13247 272.12304 376.25351 272.25391 376.35352 C 272.77731 376.75418 273.07698 376.85114 273.30273 376.9375 C 273.75424 377.11022 273.94351 377.13087 274.12891 377.16602 C 274.49972 377.23669 274.75573 377.26154 275.06641 377.29102 C 275.68778 377.34998 276.45117 377.39485 277.42188 377.43945 C 279.36329 377.52827 282.09262 377.61077 285.46875 377.67578 C 292.22102 377.8058 301.52018 377.88281 311.82812 377.88281 L 333.31055 377.88281 C 343.61849 377.88281 352.9196 377.8058 359.67188 377.67578 C 363.04801 377.61077 365.78318 377.52827 367.72461 377.43945 C 368.69531 377.39523 369.45869 377.34998 370.08008 377.29102 C 370.39076 377.26078 370.64681 377.23669 371.01758 377.16602 C 371.20315 377.132 371.39229 377.10985 371.84375 376.9375 C 372.06939 376.85095 372.36915 376.75415 372.89258 376.35352 C 373.02335 376.25336 373.16203 376.13232 373.32031 375.9707 C 373.47867 375.80894 373.82125 375.35116 373.82227 375.34961 C 373.82427 375.34651 374.47852 373.13786 374.47852 373.13477 L 374.47852 272.01172 C 374.47852 272.00862 373.82427 269.79997 373.82227 269.79688 C 373.82125 269.79533 373.47871 269.33736 373.32031 269.17578 C 373.16195 269.0144 373.02327 268.89298 372.89258 268.79297 C 372.36915 268.3923 372.0695 268.29535 371.84375 268.20898 C 371.39225 268.03626 371.203 268.00818 371.01758 267.97266 C 370.64681 267.90198 370.39076 267.87714 370.08008 267.84766 C 369.45869 267.7887 368.69531 267.74382 367.72461 267.69922 C 365.78318 267.6104 363.04801 267.53609 359.67188 267.4707 C 352.9196 267.34069 343.61849 267.26367 333.31055 267.26367 L 311.82812 267.26367 z "
       transform="matrix(0.26458333,0,0,0.26458333,20.39957,63.899563)" />
  </g>
</svg>
