<svg xmlns="http://www.w3.org/2000/svg" viewBox="0 0 640 512"><!--! Font Awesome Pro 6.0.0-alpha3 by @fontawesome - https://fontawesome.com License - https://fontawesome.com/license (Commercial License) --><path d="M241.1 253.9c-27.87-76.61 4.999-160.6 73.75-199.7c-8.5-5.621-17.5-10.5-27.5-14.12C218.1 14.91 142.5 50.66 117.3 119.8C116.5 121.9 102.6 160.3 101.9 162.4c-29.12 80.11-66.37 94.36-87.37 104.1c-20.12 10.37-19.5 40.62 2.1 48.87l243.2 88.49c8.498-19.12 19.5-45.49-3.25-108.1L241.1 253.9zM138.1 444.2c27.62 10 57.5-.3723 73.74-23.25l-115.4-41.99C94.26 406.9 110.4 434.1 138.1 444.2zM501.9 476.2c27.62-10.12 43.87-37.24 41.62-65.24l-115.4 41.99C444.4 475.7 474.2 486.2 501.9 476.2zM625.6 299.4c-20.1-10.62-58.37-24.88-87.37-104.1c-.875-2.125-14.75-40.5-15.5-42.62c-19.75-54.07-70.87-87.74-125.3-87.74c-15.16 0-30.58 2.63-45.65 8.126C282.6 97.25 246.9 173.8 272.1 242.1c.75 2.121 14.75 40.37 15.62 42.62c29.12 80.11 9.625 114.9 .5 136.6c-7.615 17.7 6.032 37.05 24.27 37.05c3.018 0 6.157-.5301 9.351-1.682l300.6-109.4C642.1 340.7 647.3 310.6 625.6 299.4zM347.6 397.2c6.029-28.89 6.381-69.96-15-128.8c-1.322-3.484-14.19-38.64-15.34-41.85c-7.807-21.41-6.805-44.57 2.82-65.22c9.625-20.64 26.71-36.3 48.15-44.09c9.461-3.449 19.29-5.199 29.21-5.199c35.72 0 67.97 22.58 80.07 55.69c.1152 .3281 12.21 33.92 15.63 42.98c21.12 58.35 47.69 89.47 70.92 107.7L347.6 397.2z"/></svg>