<svg width="24" height="24" version="1.1" viewBox="0 0 24 24" xmlns="http://www.w3.org/2000/svg">
 <path d="m12 2a10 10 0 0 0-10 10 10 10 0 0 0 10 10 10 10 0 0 0 10-10 10 10 0 0 0-10-10zm5.6289 5.9629v0.0019532c0.12781-4e-6 0.25558 0.04855 0.35352 0.14648 0.19587 0.19587 0.19587 0.51116 0 0.70703l-7.0723 7.0723c-0.02449 0.02449-0.050325 0.046133-0.078125 0.064453-0.02772 0.01839-0.055857 0.032682-0.085937 0.044922-0.03009 0.01224-0.06225 0.019271-0.09375 0.025391-0.03149 0.0061-0.063743 0.011718-0.095703 0.011718-0.03195 0-0.06226-0.005518-0.09375-0.011718-0.03149-0.0061-0.06367-0.013151-0.09375-0.025391-0.03009-0.01224-0.058188-0.026562-0.085938-0.044922-0.01389-0.0092-0.027866-0.02051-0.041015-0.03125-0.013121-0.01071-0.026823-0.022916-0.039063-0.035156l-4.1855-4.1875c-0.19587-0.19587-0.19587-0.51116 0-0.70703 0.19587-0.19587 0.51116-0.19587 0.70703 0l3.832 3.834 6.7188-6.7188c0.09793-0.09793 0.22571-0.14648 0.35352-0.14648z" fill="#5b9bf8"/>
</svg>
